<svg xmlns="http://www.w3.org/2000/svg" xmlns:xlink="http://www.w3.org/1999/xlink" width="24" height="24" viewBox="0 0 24 24"><defs><clipPath id="clip-path"><circle id="Ellipse_129" data-name="Ellipse 129" cx="12" cy="12" r="12" transform="translate(0)" fill="#fff"></circle></clipPath><clipPath id="clip-path-2"><path id="Path_14141" data-name="Path 14141" d="M-80.213,0h32V24h-32Z" transform="translate(80.213)" fill="rgba(0,0,0,0.67)"></path></clipPath></defs><g id="EN" transform="translate(11540 9744)"><g id="Mask_Group_8" data-name="Mask Group 8" transform="translate(-11540 -9744)" clip-path="url(#clip-path)"><g id="en-2" data-name="en" transform="translate(-4.032)" clip-path="url(#clip-path-2)"><g id="Group_31" data-name="Group 31" transform="translate(-8)"><path id="Path_14137" data-name="Path 14137" d="M-240.64,0h48V24h-48Z" transform="translate(240.64)" fill="#006"></path><path id="Path_14138" data-name="Path 14138" d="M-240.64,0V2.683L-198.006,24h5.366V21.317L-235.274,0Zm48,0V2.683L-235.274,24h-5.366V21.317L-198.006,0Z" transform="translate(240.64)" fill="#fff"></path><path id="Path_14139" data-name="Path 14139" d="M-220.64,0V24h8V0Zm-20,8v8h48V8Z" transform="translate(240.64)" fill="#fff"></path><path id="Path_14140" data-name="Path 14140" d="M-240.64,9.6v4.8h48V9.6Zm21.6-9.6V24h4.8V0Zm-21.6,24,16-8h3.578l-16,8Zm0-24,16,8h-3.578L-240.64,1.789Zm28.423,8,16-8h3.578l-16,8Zm19.578,16-16-8h3.578l12.423,6.211Z" transform="translate(240.64)" fill="#c00"></path></g></g></g><g id="Ellipse_132" data-name="Ellipse 132" transform="translate(-11540 -9744)" fill="none" stroke="#3c3c3b" stroke-width="0.5"><circle cx="12" cy="12" r="12" stroke="none"></circle><circle cx="12" cy="12" r="11.75" fill="none"></circle></g></g></svg>